# xmcd
#
# Track frame offsets: 
#        150
#        12356
#        34149
#        55311
#        71513
#        105876
#        131459
#        149413
#        169726
#
# Disc length: 2531 seconds
#
# Revision: 0
# Processed by: cddbd v1.5.1PL2 Copyright (c) Steve Scherf et al.
# Submitted via: ExactAudioCopy v0.95a5
#
DISCID=7509e109
DTITLE=Sam Lay's All Stars - Live On Beale Street
DYEAR=2000
DGENRE=Blues
TTITLE0=Sam Lay Shuffle
TTITLE1=Poison Ivy
TTITLE2=Beale Street
TTITLE3=Gilf Coast Blues
TTITLE4=Medley - Rock Me Baby, I'm A King Bee
TTITLE5=Commit A Crime
TTITLE6=It's A Jungle Out There
TTITLE7=Ride 'Em On Down
TTITLE8=Shop Til She Drops
EXTD=
EXTT0=
EXTT1=
EXTT2=
EXTT3=
EXTT4=
EXTT5=
EXTT6=
EXTT7=
EXTT8=
PLAYORDER=
